<svg xmlns="http://www.w3.org/2000/svg" viewBox="0 0 850.38 844.08"><defs><style>.cls-1{fill:#fff;}</style></defs><title>Asset 1</title><g id="Layer_2" data-name="Layer 2"><g id="Layer_3" data-name="Layer 3"><polygon class="cls-1" points="425.19 422.04 425.19 422.04 425.19 422.04 425.19 422.04"/><circle class="cls-1" cx="425.19" cy="422.04" transform="translate(-173.89 424.27) rotate(-45)"/><circle class="cls-1" cx="425.19" cy="422.04" transform="translate(-173.89 424.27) rotate(-45)"/><polygon class="cls-1" points="425.19 422.04 425.19 422.04 425.19 422.04 425.19 422.04"/><polygon class="cls-1" points="425.19 422.04 425.19 422.04 425.19 422.04 425.19 422.04"/><polygon class="cls-1" points="425.19 422.04 425.19 422.04 425.19 422.04 425.19 422.04"/><polygon class="cls-1" points="425.19 422.04 425.19 422.04 425.19 422.04 425.19 422.04"/><polygon class="cls-1" points="425.19 422.04 425.19 422.04 425.19 422.04 425.19 422.04"/><polygon class="cls-1" points="425.19 422.04 425.19 422.04 425.19 422.04 425.19 422.04"/><polygon class="cls-1" points="425.19 422.04 425.19 422.04 425.19 422.04 425.19 422.04"/><polygon class="cls-1" points="425.19 422.04 425.19 422.04 425.19 422.04 425.19 422.04"/><polygon class="cls-1" points="425.19 422.04 425.19 422.04 425.19 422.04 425.19 422.04"/><circle class="cls-1" cx="425.19" cy="422.04" transform="translate(-173.89 424.27) rotate(-45)"/><polygon class="cls-1" points="425.19 422.04 425.19 422.04 425.19 422.04 425.19 422.04 425.19 422.04 425.19 422.04"/><polygon class="cls-1" points="425.19 422.04 425.19 422.04 425.19 422.04 425.19 422.04"/><polygon class="cls-1" points="425.19 422.04 425.19 422.04 425.19 422.04 425.19 422.04"/><polygon class="cls-1" points="425.19 422.04 425.19 422.04 425.19 422.04 425.19 422.04"/><circle class="cls-1" cx="425.19" cy="422.04" transform="translate(-74.51 91.58) rotate(-11.31)"/><polygon class="cls-1" points="425.19 422.04 425.19 422.04 425.19 422.04 425.19 422.04"/><polygon class="cls-1" points="425.19 422.04 425.19 422.04 425.19 422.04 425.19 422.04"/><polygon class="cls-1" points="425.19 422.04 425.19 422.04 425.19 422.04 425.19 422.04"/><polygon class="cls-1" points="425.19 422.04 425.19 422.04 425.19 422.04 425.19 422.04"/><polygon class="cls-1" points="425.19 422.04 425.19 422.04 425.19 422.04 425.19 422.04"/><polygon class="cls-1" points="425.19 422.04 425.19 422.04 425.19 422.04 425.19 422.04"/><circle class="cls-1" cx="425.19" cy="422.04" transform="translate(-74.51 91.58) rotate(-11.31)"/><polygon class="cls-1" points="425.19 422.04 425.19 422.04 425.19 422.04 425.19 422.04"/><polygon class="cls-1" points="425.19 422.04 425.19 422.04 425.19 422.04 425.19 422.04"/><polygon class="cls-1" points="425.19 422.04 425.19 422.04 425.19 422.04 425.19 422.04"/><polygon class="cls-1" points="425.19 422.04 425.19 422.04 425.19 422.04 425.19 422.04"/><polygon class="cls-1" points="425.19 422.04 425.19 422.04 425.19 422.04 425.19 422.04"/><polygon class="cls-1" points="425.19 422.04 425.19 422.04 425.19 422.04 425.19 422.04"/><polygon class="cls-1" points="425.19 422.04 425.19 422.04 425.19 422.04 425.19 422.04"/><polygon class="cls-1" points="425.19 422.04 425.19 422.04 425.19 422.04 425.19 422.04"/><polygon class="cls-1" points="425.19 422.04 425.19 422.04 425.19 422.04 425.19 422.04"/><circle class="cls-1" cx="425.19" cy="422.04" transform="translate(-170.7 483.87) rotate(-50.71)"/><polygon class="cls-1" points="425.19 422.04 425.19 422.04 425.19 422.04 425.19 422.04"/><polygon class="cls-1" points="425.19 422.04 425.19 422.04 425.19 422.04 425.19 422.04"/><polygon class="cls-1" points="425.19 422.04 425.19 422.04 425.19 422.04 425.19 422.04"/><polygon class="cls-1" points="425.19 422.04 425.19 422.04 425.19 422.04 425.19 422.04"/><polygon class="cls-1" points="425.19 422.04 425.19 422.04 425.19 422.04 425.19 422.04"/><rect class="cls-1" x="425.19" y="422.04"/><polygon class="cls-1" points="425.19 422.04 425.19 422.04 425.19 422.04 425.19 422.04 425.19 422.04 425.19 422.04"/><polygon class="cls-1" points="425.19 422.04 425.19 422.04 425.19 422.04 425.19 422.04"/><circle class="cls-1" cx="425.19" cy="422.04" transform="translate(-173.89 424.27) rotate(-45)"/><circle class="cls-1" cx="425.19" cy="422.04" transform="translate(-155.47 569.5) rotate(-59.04)"/><polygon class="cls-1" points="425.19 422.04 425.19 422.04 425.19 422.04 425.19 422.04"/><polygon class="cls-1" points="425.19 422.04 425.19 422.04 425.19 422.04 425.19 422.04"/><circle class="cls-1" cx="425.19" cy="422.04" transform="translate(-155.47 569.5) rotate(-59.04)"/><polygon class="cls-1" points="425.19 422.04 425.19 422.04 425.19 422.04 425.19 422.04"/><circle class="cls-1" cx="425.19" cy="422.04"/><polygon class="cls-1" points="425.19 422.04 425.19 422.04 425.19 422.04 425.19 422.04"/><polygon class="cls-1" points="425.19 422.04 425.19 422.04 425.19 422.04 425.19 422.04"/><polygon class="cls-1" points="425.19 422.04 425.19 422.04 425.19 422.04 425.19 422.04"/><polygon class="cls-1" points="425.19 422.04 425.19 422.04 425.19 422.04 425.19 422.04"/><polygon class="cls-1" points="425.19 422.04 425.19 422.04 425.19 422.04 425.19 422.04"/><polygon class="cls-1" points="425.19 422.04 425.19 422.04 425.19 422.04 425.19 422.04"/><polygon class="cls-1" points="425.19 422.04 425.19 422.04 425.19 422.04 425.19 422.04"/><circle class="cls-1" cx="425.19" cy="422.04" transform="translate(-173.89 424.27) rotate(-45)"/><polygon class="cls-1" points="425.19 422.04 425.19 422.04 425.19 422.04 425.19 422.04"/><polygon class="cls-1" points="425.19 422.04 425.19 422.04 425.19 422.04 425.19 422.04"/><polygon class="cls-1" points="425.19 422.04 425.19 422.04 425.19 422.04 425.19 422.04"/><polygon class="cls-1" points="425.19 422.04 425.19 422.04 425.19 422.04 425.19 422.04"/><polygon class="cls-1" points="425.19 422.04 425.19 422.04 425.19 422.04 425.19 422.04"/><polygon class="cls-1" points="425.19 422.04 425.19 422.04 425.19 422.04 425.19 422.04"/><polygon class="cls-1" points="425.19 422.04 425.19 422.04 425.19 422.04 425.19 422.04"/><polygon class="cls-1" points="425.19 422.04 425.19 422.04 425.19 422.04 425.19 422.04"/><polygon class="cls-1" points="425.19 422.04 425.19 422.04 425.19 422.04 425.19 422.04 425.19 422.04 425.19 422.04"/><circle class="cls-1" cx="425.19" cy="422.04" transform="translate(-111.64 156.11) rotate(-18.43)"/><polygon class="cls-1" points="425.19 422.04 425.19 422.04 425.19 422.04 425.19 422.04 425.19 422.04 425.19 422.04 425.19 422.04"/><circle class="cls-1" cx="425.19" cy="422.04" transform="translate(-171.14 364.65) rotate(-39.29)"/><circle class="cls-1" cx="425.19" cy="422.04" transform="translate(-173.89 424.27) rotate(-45)"/><circle class="cls-1" cx="425.19" cy="422.04" transform="translate(-111.64 156.11) rotate(-18.43)"/><polygon class="cls-1" points="425.19 422.04 425.19 422.04 425.19 422.04 425.19 422.04"/><polygon class="cls-1" points="425.19 422.04 425.19 422.04 425.19 422.04 425.19 422.04"/><polygon class="cls-1" points="425.19 422.04 425.19 422.04 425.19 422.04 425.19 422.04"/><polygon class="cls-1" points="425.19 422.04 425.19 422.04 425.19 422.04 425.19 422.04"/><polygon class="cls-1" points="425.19 422.04 425.19 422.04 425.19 422.04 425.19 422.04 425.19 422.04 425.19 422.04"/><polygon class="cls-1" points="425.19 422.04 425.19 422.04 425.19 422.04 425.19 422.04"/><polygon class="cls-1" points="425.19 422.04 425.19 422.04 425.19 422.04 425.19 422.04"/><polygon class="cls-1" points="425.19 422.04 425.19 422.04 425.19 422.04 425.19 422.04"/><polygon class="cls-1" points="425.19 422.04 425.19 422.04 425.19 422.04 425.19 422.04"/><polygon class="cls-1" points="425.19 422.04 425.19 422.04 425.19 422.04 425.19 422.04"/><polygon class="cls-1" points="425.19 422.04 425.19 422.04 425.19 422.04 425.19 422.04"/><polygon class="cls-1" points="425.19 422.04 425.19 422.04 425.19 422.04 425.19 422.04"/><polygon class="cls-1" points="425.19 422.04 425.19 422.04 425.19 422.04 425.19 422.04"/><polygon class="cls-1" points="425.19 422.04 425.19 422.04 425.19 422.04 425.19 422.04"/><polygon class="cls-1" points="425.19 422.04 425.19 422.04 425.19 422.04 425.19 422.04"/><polygon class="cls-1" points="425.19 422.04 425.19 422.04 425.19 422.04 425.19 422.04"/><polygon class="cls-1" points="425.19 422.04 425.19 422.04 425.19 422.04 425.19 422.04"/><polygon class="cls-1" points="425.19 422.04 425.19 422.04 425.19 422.04 425.19 422.04"/><path class="cls-1" d="M827.31,283.59q-2.41-7-5.07-14t-5.56-13.77l-111.4,47.28-97.76,41.5q-.31,3.85-.71,7.69c-.28,2.5-.57,5-.91,7.49s-.69,4.87-1.08,7.3l127.24-38.9,99.83-30.52Q829.73,290.61,827.31,283.59Z"/><path class="cls-1" d="M849.8,444.29q.38-7.4.52-14.83t0-14.84q-.12-7.41-.51-14.84l-67,3.51-189.43,9.93c-.66,2-1.36,4-2.07,5.92s-1.43,3.85-2.18,5.76-1.48,3.75-2.26,5.61-1.53,3.66-2.33,5.47L800.8,454.91l48,4.19Q849.41,451.7,849.8,444.29Z"/><path class="cls-1" d="M746.1,143.08q-4.85-5.57-9.94-11L608.42,251.16l-7.25,6.77c.72,3.11,1.39,6.25,2,9.38s1.15,6.17,1.64,9.26l23.07-18.68L755.65,154.44Q751,148.7,746.1,143.08Z"/><path class="cls-1" d="M382.79,767.32l21.28-173.23c-2.13.62-4.26,1.21-6.41,1.77s-4.38,1.13-6.58,1.66-4.5,1-6.75,1.52-4.62,1-6.94,1.39-4.74.86-7.11,1.23-4.86.76-7.3,1.08-5,.64-7.49.91-5.13.52-7.69.71-5.25.4-7.87.53l-41,87.9q3.56,4.73,7.35,9.33t7.88,9.15q4.05,4.54,8.35,8.94l2.45,2.48q3.16,3.16,6.4,6.2,4.59,4.32,9.34,8.39t9.83,8.09q5.08,4,10.3,7.72t10.76,7.32L358.66,842c4.9.77,9.79,1.45,14.71,2.05Z"/><path class="cls-1" d="M513.71,805.48,459.66,571.33q-2.46,1.34-4.94,2.61c-1.68.86-3.37,1.72-5.06,2.55s-3.46,1.67-5.2,2.48-3.55,1.63-5.33,2.4-3.64,1.58-5.47,2.33-3.73,1.53-5.61,2.26-3.84,1.48-5.77,2.18-3.93,1.41-5.91,2.08l-9.93,189.43q6.15,2.84,12.4,5.37t12.76,4.82q6.5,2.26,13.07,4.22t13.37,3.6c4.51,1.1,9.06,2.09,13.61,3s9.22,1.65,13.85,2.3,9.33,1.22,14,1.63l6.79,34.92q7.28-1.4,14.52-3.07Z"/><path class="cls-1" d="M654.29,774.82l-151-232.58q-2,1.6-3.95,3.14t-4,3.1c-1.36,1-2.74,2-4.12,3s-2.79,2-4.2,3-2.85,2-4.29,2.93-2.92,1.94-4.39,2.89-3,1.91-4.49,2.84L556.7,804q7.2-.77,14.35-2t14.29-2.69q7.13-1.53,14.17-3.44t14-4.18q7-2.26,13.84-4.91T641,781.18l3.25,5.41q6.34-3.82,12.59-7.88Z"/><path class="cls-1" d="M292.07,683.3l39.8-78.11c-2.75.08-5.49.11-8.24.08s-5.62-.06-8.44-.16-5.74-.24-8.61-.43-5.86-.42-8.8-.69-6-.62-8.94-1-6.09-.83-9.12-1.32-6.18-1-9.26-1.64-6.26-1.29-9.38-2-6.35-1.53-9.51-2.37q1.28,4.83,2.75,9.61t3.15,9.7q1.69,4.91,3.58,9.77t4,9.81q2.12,4.94,4.45,9.81c1.56,3.3,3.21,6.58,4.91,9.82s3.53,6.54,5.4,9.78,3.85,6.51,5.88,9.7L219,794q6.51,3.61,13.1,7Z"/><path class="cls-1" d="M810.65,601.78q3.15-6.74,6-13.56t5.55-13.77q2.66-6.95,5.07-14t4.57-14.12l-23.5-7.18L569.1,466q-1.37,2.3-2.79,4.6t-2.84,4.49c-.95,1.47-1.91,2.94-2.89,4.39s-1.94,2.87-2.93,4.29-2,2.81-3,4.2L794.89,610.4l9.26,4.72Q807.52,608.51,810.65,601.78Z"/><path class="cls-1" d="M728.47,720.05q3.9-4,7.69-8,5.08-5.44,9.93-11t9.56-11.36q4.69-5.77,9.15-11.68l-1.65-1.24-224.22-169q-1.62,1.88-3.3,3.72t-3.36,3.66c-1.12,1.22-2.26,2.41-3.4,3.6s-2.31,2.36-3.47,3.53-2.35,2.33-3.53,3.47-2.38,2.28-3.6,3.4L703.82,742.57l.33.37q5.57-4.85,11-9.93,4.05-3.78,8-7.69l2.64-2.62Z"/><path class="cls-1" d="M443.93,64.45q-6.15-2.84-12.41-5.37t-12.76-4.82Q412.28,52,405.69,50t-13.36-3.59c-4.52-1.11-9.07-2.09-13.63-3s-9.21-1.65-13.84-2.3-9.34-1.21-14-1.63L344,4.61Q336.77,6,329.53,7.69l7.14,30.91,54.05,234.15q2.45-1.33,4.94-2.6c1.68-.87,3.37-1.72,5.07-2.55s3.45-1.67,5.19-2.47,3.55-1.63,5.33-2.4,3.63-1.58,5.47-2.33,3.73-1.53,5.61-2.27,3.84-1.46,5.76-2.17,3.94-1.41,5.92-2.07Z"/><path class="cls-1" d="M293.67,40.09q-7.19.79-14.35,2T265,44.75q-7.14,1.52-14.19,3.43t-14,4.17q-7,2.28-13.84,4.91t-13.6,5.65l-3.25-5.41q-6.34,3.82-12.58,7.87l2.52,3.9,151,232.57q2-1.6,3.95-3.14c1.34-1.05,2.67-2.08,4-3.09s2.74-2,4.12-3,2.78-2,4.19-3,2.86-2,4.3-2.94,2.91-1.94,4.38-2.89,3-1.91,4.49-2.84Z"/><path class="cls-1" d="M314.74,332.6c1.1-1.23,2.22-2.45,3.35-3.66s2.26-2.4,3.41-3.59,2.31-2.36,3.47-3.53,2.35-2.33,3.53-3.47,2.38-2.28,3.59-3.41L146.56,101.52q-5.73,4.65-11.26,9.64-4.12,3.71-8.12,7.61l-2.64,2.62L121.92,124q-3.91,4-7.69,8-5.08,5.44-9.94,11t-9.55,11.36q-4.7,5.78-9.16,11.68l1.65,1.24,224.22,169Q313.07,334.44,314.74,332.6Z"/><path class="cls-1" d="M551.44,151.29q-3.56-4.73-7.36-9.34t-7.87-9.14q-4.05-4.54-8.35-8.94l-2.45-2.48q-3.16-3.16-6.4-6.2-4.6-4.33-9.35-8.4t-9.82-8.08q-5.08-4-10.3-7.72t-10.76-7.33l12.93-81.6Q484.38.89,477,0l-9.43,76.77L446.31,250c2.13-.62,4.26-1.21,6.41-1.77s4.38-1.14,6.58-1.66,4.5-1,6.75-1.52,4.62-1,6.94-1.39,4.74-.86,7.11-1.24,4.86-.75,7.3-1.08,5-.63,7.5-.91,5.11-.52,7.67-.71,5.25-.39,7.88-.52Z"/><path class="cls-1" d="M596.06,238.8q-1.5-4.87-3.15-9.7t-3.58-9.76q-1.91-4.94-4-9.81t-4.46-9.82c-1.56-3.3-3.21-6.58-4.91-9.82s-3.53-6.54-5.39-9.77-3.85-6.51-5.88-9.72l66.7-120.34q-6.49-3.61-13.1-7l-60,117.7-39.8,78.11c2.74-.08,5.49-.1,8.24-.08s5.62.06,8.44.16,5.74.24,8.61.42,5.85.42,8.78.71,6,.62,9,1,6.08.82,9.11,1.31,6.18,1,9.26,1.65,6.27,1.27,9.39,2,6.36,1.52,9.51,2.37Q597.52,243.59,596.06,238.8Z"/><path class="cls-1" d="M259.1,424.94q1.06-2.89,2.17-5.76c.73-1.87,1.48-3.75,2.27-5.61s1.53-3.65,2.33-5.47L49.59,389.18,1.6,385q-.65,7.39-1,14.8T.07,414.62q-.14,7.41,0,14.84t.52,14.83l67-3.51L257,430.85C257.69,428.87,258.39,426.89,259.1,424.94Z"/><path class="cls-1" d="M284.07,373.45c.93-1.51,1.87-3,2.84-4.49s1.9-2.93,2.89-4.39,1.94-2.87,2.93-4.29,2-2.81,3-4.2L55.5,233.68,46.24,229q-3.38,6.63-6.51,13.34t-6,13.56q-2.91,6.85-5.56,13.77t-5.07,14q-2.42,7-4.58,14.12L42,304.89,281.29,378C282.21,376.51,283.12,375,284.07,373.45Z"/><path class="cls-1" d="M247.2,576.76c-.59-3.08-1.15-6.17-1.64-9.26l-23.07,18.69L94.73,689.65q4.66,5.74,9.55,11.35t9.93,11L242,592.91l7.24-6.76C248.48,583,247.82,579.89,247.2,576.76Z"/><path class="cls-1" d="M243.58,491.75c.27-2.49.57-5,.91-7.49s.69-4.87,1.07-7.31L118.33,515.86,18.5,546.38q2.16,7.09,4.57,14.12t5.07,14q2.65,6.92,5.55,13.77l111.4-47.28,97.78-41.51C243.07,496.86,243.31,494.31,243.58,491.75Z"/></g></g></svg>